<?xml version="1.0" standalone="no"?>
<!DOCTYPE svg PUBLIC "-//W3C//DTD SVG 20010904//EN"
 "http://www.w3.org/TR/2001/REC-SVG-20010904/DTD/svg10.dtd">
<svg version="1.0" xmlns="http://www.w3.org/2000/svg"
 width="500.000000pt" height="500.000000pt" viewBox="0 0 500.000000 500.000000"
 preserveAspectRatio="xMidYMid meet">
<metadata>
Created by potrace 1.14, written by Peter Selinger 2001-2017
</metadata>
<g transform="translate(0.000000,500.000000) scale(0.100000,-0.100000)"
fill="#000000" stroke="none">
<path d="M2367 4993 c-4 -3 -44 -16 -89 -29 -46 -12 -108 -29 -138 -38 -35
-10 -72 -14 -101 -10 -67 9 -99 -2 -484 -174 -93 -41 -186 -86 -205 -99 -19
-12 -45 -23 -57 -23 -13 0 -114 -29 -226 -64 -111 -36 -220 -68 -242 -72 -56
-10 -90 -29 -118 -66 -60 -80 -156 -255 -383 -701 -135 -263 -257 -501 -272
-530 l-27 -52 0 -385 c1 -350 3 -399 23 -535 34 -222 69 -395 108 -535 64
-228 225 -734 247 -775 34 -62 71 -79 260 -124 414 -97 736 -141 1187 -162
140 -6 258 -14 261 -18 3 -3 32 -103 63 -221 70 -264 84 -296 151 -332 65 -36
98 -35 263 6 75 19 245 55 377 81 286 55 386 82 494 134 60 29 103 42 168 51
49 6 119 16 157 21 110 15 163 47 356 212 85 73 126 118 490 537 107 124 226
258 264 299 64 70 106 141 106 180 0 16 -35 104 -140 355 l-33 80 17 45 c27
69 72 247 106 421 17 85 35 169 40 186 16 50 12 132 -7 154 -10 10 -35 65 -55
122 -21 57 -77 213 -127 348 -49 135 -94 263 -100 285 -6 22 -20 125 -31 228
-25 238 -46 370 -65 407 -32 61 -85 87 -299 145 -242 65 -582 103 -1018 112
-278 6 -288 7 -301 27 -8 12 -72 132 -142 269 l-128 247 -172 0 c-94 0 -175
-3 -178 -7z m333 -195 c55 -117 80 -178 165 -400 20 -54 40 -98 44 -98 3 0
173 -2 376 -4 383 -4 585 -15 740 -41 186 -32 465 -118 465 -144 0 -3 4 -42
10 -86 54 -462 54 -462 123 -645 20 -53 56 -156 80 -230 25 -74 63 -187 86
-250 l40 -116 -14 -67 c-9 -43 -12 -96 -8 -150 6 -88 -13 -182 -78 -385 -16
-51 -29 -105 -29 -120 0 -15 13 -72 29 -127 16 -55 44 -158 62 -230 l33 -130
-29 -64 c-36 -78 -69 -120 -350 -432 -313 -347 -376 -411 -498 -501 -133 -98
-160 -110 -328 -147 -74 -16 -165 -41 -204 -54 -68 -24 -162 -47 -590 -143
-110 -24 -237 -53 -282 -64 -86 -21 -129 -25 -137 -12 -2 4 -43 129 -91 277
-48 149 -93 279 -100 291 -13 19 -26 22 -167 28 -351 15 -727 48 -898 77 -197
34 -524 123 -594 162 -38 21 -42 29 -88 154 -56 153 -119 365 -153 508 -12 55
-35 150 -49 211 -25 106 -75 417 -95 594 -6 50 -7 195 -3 355 l7 270 30 6 c23
5 25 7 8 8 -28 1 -30 17 -3 24 18 5 19 8 9 30 -10 22 1 49 106 253 65 126 121
234 125 239 4 6 40 73 80 150 40 77 100 190 135 250 34 61 78 139 98 175 19
36 44 73 54 81 10 9 77 35 148 58 270 87 412 140 665 251 85 37 209 91 275
120 81 36 141 55 190 62 38 5 174 35 300 67 127 32 234 59 238 60 5 0 35 -54
67 -121z"/>
<path d="M3495 3976 c-38 -8 -110 -31 -159 -51 -83 -34 -95 -36 -157 -30 l-67
7 -26 -39 c-14 -21 -35 -64 -47 -96 -12 -32 -35 -72 -50 -88 l-27 -29 -464 0
c-256 0 -513 3 -572 7 l-107 6 -35 57 c-61 99 -71 103 -273 113 -151 8 -182 7
-240 -8 -95 -25 -202 -80 -270 -139 -64 -55 -106 -131 -135 -242 -34 -132
-120 -803 -146 -1139 -25 -323 -25 -467 -1 -608 23 -131 54 -189 159 -295 136
-137 282 -180 413 -120 111 51 206 171 292 368 37 84 135 254 173 299 l24 29
62 -31 c57 -30 68 -32 167 -32 101 0 109 2 181 36 92 44 163 107 220 194 l42
65 57 0 c31 0 106 3 168 7 l112 6 64 -65 c80 -79 160 -123 251 -138 110 -17
235 16 302 81 l31 30 36 -43 c48 -59 87 -132 147 -273 67 -155 110 -218 194
-281 132 -101 233 -100 347 3 57 51 90 103 138 215 71 169 85 233 84 393 -1
138 -29 394 -73 655 -11 63 -28 176 -40 250 -11 74 -25 155 -30 180 -54 235
-82 320 -144 434 -134 246 -355 360 -601 312z m314 -516 c71 -35 161 -119 161
-148 0 -34 -153 -125 -174 -104 -3 3 -6 34 -6 68 0 52 -6 74 -31 121 -44 83
-60 97 -101 89 -19 -3 -43 -12 -53 -20 -17 -13 -17 -16 0 -104 18 -93 30 -114
38 -64 2 15 5 -1 6 -35 l1 -61 -47 14 c-65 20 -82 18 -133 -16 -55 -37 -60
-37 -60 -4 0 32 -20 27 -38 -9 -18 -37 8 -90 61 -125 35 -23 52 -27 121 -28
l81 -1 10 -101 c8 -84 14 -105 33 -122 38 -36 28 -43 -50 -37 -106 8 -198 52
-229 110 -15 26 7 21 33 -8 35 -40 40 -29 8 19 -17 24 -44 73 -60 108 -25 53
-30 77 -31 153 -2 74 2 99 20 139 44 100 102 152 211 188 77 25 150 19 229
-22z m-2266 -11 c117 -38 198 -119 248 -247 19 -47 23 -77 23 -167 0 -98 -2
-116 -26 -165 -34 -73 -93 -132 -170 -171 -81 -41 -206 -52 -290 -24 -115 37
-226 143 -269 255 -23 60 -38 213 -22 223 5 3 28 -3 50 -14 22 -11 48 -17 57
-13 20 8 46 55 46 84 0 17 6 20 43 20 52 0 70 17 87 79 13 48 1 94 -28 110
-12 7 -6 13 29 29 59 27 142 28 222 1z m2097 -55 c0 -13 -4 -24 -10 -24 -5 0
-10 14 -10 31 0 17 4 28 10 24 6 -3 10 -17 10 -31z m-2370 -15 c0 -5 -7 -9
-15 -9 -9 0 -12 6 -9 15 6 15 24 11 24 -6z m2488 -121 c7 -7 12 -23 12 -36 0
-17 8 -27 30 -35 24 -9 29 -16 24 -32 -4 -11 -11 -23 -16 -26 -5 -3 -18 -23
-29 -45 -29 -54 -34 -58 -53 -39 -13 13 -16 37 -16 114 0 54 3 101 7 104 10
11 28 8 41 -5z m-1392 -33 c277 -5 334 -10 334 -27 0 -7 -122 -9 -350 -6 -347
4 -350 4 -373 26 l-22 23 70 -6 c39 -2 192 -7 341 -10z m414 -17 c0 -7 -11
-13 -25 -13 -14 0 -25 6 -25 13 0 6 11 12 25 12 14 0 25 -6 25 -12z m870 -32
c0 -2 -7 -9 -15 -16 -12 -10 -15 -10 -15 4 0 9 7 16 15 16 8 0 15 -2 15 -4z
m355 -138 c-8 -65 -47 -153 -83 -191 -34 -37 -113 -77 -149 -77 -24 0 -28 4
-30 31 -2 30 -2 31 36 24 l38 -6 7 85 c5 56 3 93 -4 106 -13 24 -12 24 105 56
44 12 82 22 83 23 2 1 1 -23 -3 -51z m-703 -242 c81 -34 138 -107 138 -176 0
-31 -30 -74 -37 -55 -16 41 -40 79 -53 83 -12 3 -12 2 -2 -6 8 -5 16 -36 19
-69 5 -56 4 -61 -27 -96 -35 -40 -75 -49 -84 -19 -7 20 -55 51 -91 58 -23 4
-25 2 -25 -37 l0 -42 -42 8 c-24 4 -50 7 -59 7 -10 0 -30 14 -45 31 -24 27
-29 42 -32 100 -7 119 40 197 135 223 57 16 153 11 205 -10z m-1264 -57 c-128
-19 -229 -93 -303 -224 -29 -50 -43 -69 -39 -50 20 91 125 218 216 260 41 19
68 25 118 24 l65 -1 -57 -9z m101 -84 c68 -35 121 -121 121 -196 0 -37 -5 -46
-47 -83 -25 -22 -59 -49 -75 -58 -40 -25 -140 -24 -196 2 -58 26 -73 63 -65
160 5 60 4 72 -8 68 -8 -2 -22 -27 -31 -54 l-16 -49 -1 55 c-1 37 5 65 18 86
21 35 77 73 125 85 41 10 143 1 175 -16z"/>
<path d="M1383 3285 c-31 -21 -43 -74 -43 -182 l0 -92 38 -3 c36 -3 37 -4 37
-43 l0 -40 -76 -3 -76 -3 -6 -42 c-9 -59 6 -67 122 -67 53 0 106 3 118 6 29 8
43 58 36 127 -8 77 5 87 118 87 l89 0 0 95 c0 52 -3 95 -6 95 -3 0 -12 -6 -19
-14 -8 -7 -32 -16 -55 -20 -23 -4 -64 -18 -91 -31 l-49 -25 -10 25 c-6 15 -10
33 -10 41 0 22 -29 87 -43 96 -19 12 -51 9 -74 -7z m288 -165 c49 -27 1 -55
-75 -45 -66 9 -72 27 -13 44 44 13 65 13 88 1z"/>
<path d="M3155 2721 c-13 -5 2 -10 50 -14 74 -6 81 -4 70 12 -7 12 -90 14
-120 2z"/>
<path d="M3330 2670 c0 -5 5 -10 11 -10 5 0 7 5 4 10 -3 6 -8 10 -11 10 -2 0
-4 -4 -4 -10z"/>
<path d="M3160 2595 c-10 -12 -9 -16 4 -21 24 -9 66 4 66 21 0 20 -53 20 -70
0z"/>
<path d="M2041 2438 c-1 -10 -8 -18 -16 -18 -10 0 -15 -10 -15 -27 0 -23 5
-28 25 -29 21 -2 25 2 24 25 -1 32 -17 76 -18 49z"/>
</g>
</svg>
